<?xml version="1.0" standalone="no"?>
<!DOCTYPE svg PUBLIC "-//W3C//DTD SVG 20010904//EN"
 "http://www.w3.org/TR/2001/REC-SVG-20010904/DTD/svg10.dtd">
<svg version="1.0" xmlns="http://www.w3.org/2000/svg"
 width="300.000000pt" height="300.000000pt" viewBox="0 0 300.000000 300.000000"
 preserveAspectRatio="xMidYMid meet">
<metadata>
Created by potrace 1.10, written by Peter Selinger 2001-2011
</metadata>
<g transform="translate(0.000000,300.000000) scale(0.100000,-0.100000)"
fill="#000000" stroke="none">
<path d="M2125 2041 c-11 -5 -162 -11 -335 -15 -173 -3 -398 -11 -500 -17
-102 -6 -208 -8 -237 -5 -61 7 -73 -5 -73 -71 0 -44 -25 -72 -170 -192 -41
-34 -109 -90 -150 -124 -41 -34 -104 -93 -140 -132 -36 -38 -111 -115 -167
-170 -97 -95 -103 -103 -103 -141 0 -49 14 -64 57 -64 24 0 38 7 54 29 38 51
114 62 374 52 50 -2 111 -5 138 -8 46 -5 47 -6 47 -38 0 -40 19 -50 69 -35 44
12 61 28 61 56 0 22 4 24 43 24 23 0 144 2 270 4 126 2 230 0 233 -5 9 -15 66
-10 85 7 22 20 118 32 316 41 l141 6 27 -27 c31 -31 64 -29 102 6 19 17 31 20
75 16 29 -3 112 -3 183 1 156 8 182 4 198 -29 16 -31 66 -39 91 -14 13 13 16
26 11 58 -9 58 -35 90 -78 96 -30 4 -44 16 -84 66 -26 34 -67 91 -91 125 -112
169 -128 192 -138 209 -6 11 -33 43 -60 73 -79 86 -125 140 -141 168 -12 21
-73 62 -86 58 -1 0 -11 -4 -22 -8z m-549 -95 c-4 -18 1 -33 20 -56 l27 -31 2
-249 c3 -233 2 -250 -16 -266 -22 -19 -21 -20 -107 61 -116 109 -150 144 -241
250 -53 61 -104 119 -113 129 -10 11 -20 28 -24 38 -3 10 -9 18 -14 18 -15 0
-19 28 -8 67 5 21 12 40 15 43 6 6 195 16 352 18 l113 2 -6 -24z m527 -3 c4
-22 -4 -38 -42 -83 -66 -76 -193 -237 -222 -281 -27 -41 -113 -157 -146 -197
-12 -15 -24 -24 -28 -21 -3 4 -7 116 -9 250 -3 243 -2 244 21 272 13 16 23 39
23 51 0 13 3 26 7 29 3 4 93 7 199 7 l192 0 5 -27z m177 -71 c30 -32 69 -74
87 -95 34 -40 153 -213 153 -222 0 -3 4 -11 10 -18 5 -7 38 -50 72 -97 35 -46
74 -94 88 -106 14 -12 21 -26 17 -31 -5 -4 -101 -9 -214 -11 l-206 -3 -27 26
c-39 38 -48 95 -55 375 -2 74 -6 151 -9 170 -4 33 7 70 22 70 4 0 32 -26 62
-58z m-106 -44 c4 -29 9 -137 11 -239 1 -102 6 -196 10 -208 5 -16 2 -21 -13
-21 -12 0 -24 -11 -32 -30 -15 -36 -24 -39 -130 -38 -47 0 -123 -5 -170 -11
-116 -15 -123 -14 -136 13 -10 21 -5 33 41 100 128 189 372 486 400 486 7 0
15 -21 19 -52z m-1169 -30 c-5 -63 -9 -103 -24 -253 -4 -44 -7 -117 -5 -163 2
-68 -1 -84 -15 -95 -10 -6 -20 -19 -23 -28 -9 -24 -55 -29 -184 -23 -210 9
-267 8 -323 -9 -62 -19 -97 -21 -106 -7 -6 10 342 370 359 370 5 0 38 26 74
58 36 31 79 68 95 82 16 14 57 49 90 78 33 28 61 52 63 52 2 0 1 -28 -1 -62z
m138 -48 c23 -30 49 -64 59 -75 64 -72 136 -146 251 -262 105 -105 129 -135
119 -145 -18 -18 -130 -27 -343 -27 -234 -1 -222 -10 -220 157 1 66 4 131 7
143 2 13 9 69 15 124 5 55 15 117 21 138 11 36 12 37 31 20 11 -10 38 -43 60
-73z"/>
</g>
</svg>
