<?xml version="1.0" standalone="no"?>
<!DOCTYPE svg PUBLIC "-//W3C//DTD SVG 20010904//EN"
 "http://www.w3.org/TR/2001/REC-SVG-20010904/DTD/svg10.dtd">
<svg version="1.0" xmlns="http://www.w3.org/2000/svg"
 width="300.000000pt" height="300.000000pt" viewBox="0 0 300.000000 300.000000"
 preserveAspectRatio="xMidYMid meet">
<metadata>
Created by potrace 1.10, written by Peter Selinger 2001-2011
</metadata>
<g transform="translate(0.000000,300.000000) scale(0.100000,-0.100000)"
fill="#000000" stroke="none">
<path d="M1194 2510 c-11 -4 -27 -23 -34 -42 -8 -18 -30 -58 -50 -88 -21 -30
-53 -87 -73 -126 l-36 -72 -113 -4 c-79 -4 -119 -1 -133 7 -11 7 -53 44 -92
82 -67 64 -73 73 -73 111 0 33 -6 45 -31 66 -17 14 -36 26 -44 26 -7 0 -16 7
-19 16 -3 9 -15 14 -28 12 -21 -3 -23 -8 -23 -60 1 -75 26 -112 80 -116 27 -2
44 -11 59 -30 11 -15 47 -53 80 -85 l60 -58 -38 -31 c-20 -17 -55 -59 -77 -94
-22 -35 -59 -78 -81 -96 -25 -20 -51 -53 -66 -86 -25 -54 -25 -55 -19 -296 6
-308 42 -607 88 -732 19 -50 63 -101 107 -123 92 -48 312 -68 824 -78 212 -4
256 -2 305 12 97 29 328 55 483 55 178 1 275 12 308 37 14 10 38 44 55 75 28
54 29 61 34 237 5 146 3 193 -10 243 -8 35 -23 97 -32 138 -32 143 -69 285
-96 364 -22 68 -35 89 -84 138 -36 35 -72 62 -94 68 -58 17 -438 24 -559 11
-59 -6 -161 -13 -227 -15 -66 -2 -158 -7 -205 -11 l-85 -7 -22 39 c-26 47
-101 133 -117 133 -17 1 -56 36 -56 52 0 18 58 129 80 151 15 16 23 17 56 8
70 -19 144 40 128 103 -15 61 -72 90 -130 66z m89 -51 c28 -45 -28 -103 -77
-81 -21 9 -24 17 -21 44 3 18 13 39 22 46 23 16 63 12 76 -9z m-749 -40 c5 -5
4 -14 -3 -23 -7 -8 -10 -20 -6 -26 3 -5 2 -10 -4 -10 -11 0 -41 51 -41 70 0
12 38 4 54 -11z m558 -323 c59 -40 126 -122 112 -136 -10 -9 -181 -30 -249
-30 -38 0 -45 3 -43 17 2 14 -8 19 -57 26 -60 8 -169 4 -213 -9 -24 -7 -24 -7
-8 24 36 69 95 120 166 143 14 5 73 7 131 6 105 -2 106 -3 161 -41z m1063
-142 c83 -3 164 -10 181 -15 45 -14 117 -87 132 -134 59 -181 65 -204 127
-480 26 -111 27 -132 23 -280 -4 -119 -10 -170 -22 -200 -20 -48 -52 -84 -86
-97 -14 -5 -126 -13 -250 -18 -225 -8 -387 -27 -490 -57 -75 -22 -295 -28
-510 -14 -96 7 -213 14 -260 16 -199 11 -303 29 -369 64 -50 27 -91 133 -115
296 -34 228 -40 311 -41 530 0 227 0 231 25 274 15 27 39 52 62 63 51 27 179
45 258 37 36 -3 57 -7 48 -7 -10 -1 -18 -8 -18 -16 0 -28 160 -27 355 3 39 6
180 16 315 21 135 6 265 14 290 19 25 6 79 8 120 6 41 -3 143 -7 225 -11z"/>
<path d="M1855 1788 c-271 -14 -304 -17 -335 -33 -38 -20 -56 -60 -41 -93 6
-12 11 -32 11 -42 0 -43 40 -53 208 -53 86 0 206 4 267 10 126 13 139 22 151
100 8 53 -15 112 -43 114 -59 4 -102 3 -218 -3z m225 -58 c16 -30 -5 -89 -33
-94 -71 -13 -237 -26 -327 -25 -152 1 -117 10 185 52 81 11 90 14 93 35 4 26
15 26 -150 5 -180 -23 -220 -23 -224 -1 -1 10 3 21 9 25 15 9 168 20 314 21
114 2 123 1 133 -18z m-516 -33 c-7 -19 -29 -23 -39 -6 -8 13 27 41 38 30 4
-4 5 -15 1 -24z m-14 -77 c0 -5 -2 -10 -4 -10 -3 0 -8 5 -11 10 -3 6 -1 10 4
10 6 0 11 -4 11 -10z"/>
<path d="M1045 1741 c-52 -9 -140 -57 -171 -95 -69 -81 -105 -198 -119 -383
-10 -140 4 -194 69 -258 76 -77 106 -90 201 -89 65 0 93 5 150 29 102 42 145
90 177 195 61 197 62 320 6 442 -32 71 -62 104 -118 135 -39 22 -134 33 -195
24z m119 -47 c9 -3 16 -13 16 -21 0 -12 8 -13 38 -8 35 6 39 4 73 -42 52 -69
58 -83 70 -168 17 -123 -24 -321 -82 -394 -67 -83 -237 -127 -333 -87 -50 21
-116 85 -137 132 -13 32 -16 60 -13 120 8 151 14 199 33 249 45 118 92 175
171 209 35 15 135 21 164 10z"/>
<path d="M982 1600 c-83 -53 -108 -104 -118 -240 -6 -86 -4 -101 16 -150 35
-84 68 -115 139 -131 73 -16 193 54 235 140 22 44 22 50 11 136 -22 167 -54
225 -134 241 -21 5 -31 12 -31 25 0 32 -49 23 -118 -21z m72 -25 c3 -8 18 -15
32 -15 15 0 45 -8 65 -17 46 -21 64 -60 81 -168 14 -93 -3 -147 -64 -200 -106
-90 -201 -66 -252 64 -24 59 -25 69 -15 135 16 111 32 146 86 184 54 36 59 38
67 17z"/>
<path d="M1013 1403 c-4 -10 -7 -38 -8 -62 0 -36 4 -45 23 -52 50 -19 86 76
44 114 -24 22 -51 22 -59 0z"/>
<path d="M2003 1428 c-32 -36 -44 -66 -46 -113 -2 -54 15 -75 70 -82 35 -5 43
-2 62 23 28 36 24 94 -9 129 -12 12 -20 31 -18 41 5 28 -34 29 -59 2z m51 -64
c31 -32 33 -53 7 -85 -18 -22 -19 -23 -45 -5 -15 9 -29 23 -32 31 -6 15 24 85
36 85 4 0 19 -12 34 -26z"/>
<path d="M1616 1398 c-9 -12 -16 -42 -16 -66 0 -35 6 -49 29 -73 35 -35 60
-37 89 -6 27 29 30 96 5 138 -14 24 -24 29 -55 29 -27 0 -41 -6 -52 -22z m90
-53 c14 -56 -29 -88 -59 -44 -15 21 -12 59 6 70 17 12 47 -3 53 -26z"/>
<path d="M2217 1105 c-62 -13 -72 -18 -63 -33 3 -6 32 -8 67 -5 l60 6 -3 -54
-3 -54 -68 2 c-38 0 -70 3 -73 5 -2 2 -7 29 -11 59 -6 39 -13 55 -26 57 -10 2
-17 -3 -17 -12 0 -25 29 -129 39 -139 12 -12 79 -26 128 -27 62 0 77 20 69 93
-3 33 -6 68 -6 78 0 29 -30 37 -93 24z"/>
<path d="M1862 1068 c-54 -10 -75 -29 -53 -51 6 -6 11 -20 11 -31 0 -11 6 -35
12 -54 10 -26 17 -32 33 -28 11 2 45 11 75 18 54 14 55 15 54 48 -1 19 -9 52
-18 73 -18 41 -22 42 -114 25z m86 -41 c16 -19 8 -49 -14 -58 -52 -20 -84 -6
-84 37 0 28 79 45 98 21z"/>
<path d="M1516 1005 c-3 -8 0 -42 6 -75 11 -59 13 -61 37 -55 14 4 53 8 86 9
57 1 60 2 63 28 2 14 -2 44 -7 66 l-11 39 -84 1 c-63 0 -86 -3 -90 -13z m151
-41 c8 -23 -6 -31 -64 -37 l-53 -6 0 29 c0 30 1 30 55 30 41 0 57 -4 62 -16z"/>
</g>
</svg>
