<?xml version="1.0" standalone="no"?>
<!DOCTYPE svg PUBLIC "-//W3C//DTD SVG 20010904//EN"
 "http://www.w3.org/TR/2001/REC-SVG-20010904/DTD/svg10.dtd">
<svg version="1.0" xmlns="http://www.w3.org/2000/svg"
 width="300.000000pt" height="300.000000pt" viewBox="0 0 300.000000 300.000000"
 preserveAspectRatio="xMidYMid meet">
<metadata>
Created by potrace 1.10, written by Peter Selinger 2001-2011
</metadata>
<g transform="translate(0.000000,300.000000) scale(0.100000,-0.100000)"
fill="#000000" stroke="none">
<path d="M1370 2553 c-214 -15 -404 -96 -544 -232 -39 -38 -92 -90 -117 -114
-26 -25 -60 -65 -76 -89 -46 -67 -121 -220 -129 -263 -4 -22 -15 -57 -24 -80
-16 -35 -45 -281 -44 -365 1 -79 17 -195 35 -255 11 -39 28 -102 38 -142 21
-85 109 -244 176 -320 102 -116 253 -202 465 -266 153 -47 248 -60 410 -60
238 0 473 56 603 144 70 47 193 165 266 256 93 114 167 307 174 453 6 125 -12
511 -27 575 -23 100 -64 202 -113 283 -105 174 -181 255 -282 306 -38 20 -72
40 -76 45 -19 31 -212 91 -295 91 -30 0 -89 9 -130 20 -72 19 -173 23 -310 13z
m235 -42 c3 -6 40 -16 82 -23 46 -7 91 -22 110 -35 39 -27 53 -29 53 -8 0 8
-4 15 -10 15 -5 0 -10 7 -10 15 0 19 -2 20 113 -14 54 -16 113 -39 130 -52 17
-12 57 -35 88 -50 79 -38 117 -74 197 -187 82 -114 110 -168 145 -277 46 -144
49 -174 51 -458 l1 -272 -33 -100 c-33 -104 -59 -153 -128 -252 -52 -73 -194
-210 -265 -254 -66 -43 -170 -89 -196 -89 -11 0 -39 -7 -62 -15 -22 -8 -106
-22 -186 -31 -137 -17 -151 -17 -276 -1 -283 37 -512 127 -651 256 -68 63
-159 187 -192 261 -22 51 -65 212 -82 305 -17 99 -18 94 4 93 9 0 71 5 137 10
66 6 170 14 230 17 61 3 121 8 135 11 47 8 265 34 293 34 24 0 31 -7 52 -55
35 -78 70 -98 155 -91 91 8 138 42 164 117 19 54 19 58 2 112 -13 43 -28 64
-66 96 -27 23 -56 41 -65 41 -9 0 -19 8 -22 18 -2 10 -5 130 -7 268 -2 238
-19 520 -31 533 -11 11 -25 -24 -20 -49 21 -95 34 -412 27 -698 l-2 -63 -44
-18 c-60 -26 -116 -92 -116 -137 0 -7 -8 -17 -17 -22 -35 -18 -353 -60 -503
-67 -52 -2 -117 -7 -145 -10 -27 -3 -78 -7 -112 -9 l-63 -3 -6 34 c-6 33 -4
58 17 238 19 154 103 363 200 497 46 64 235 232 309 274 64 37 223 85 305 93
116 12 303 13 310 2z m-58 -1016 c30 -30 35 -40 29 -68 -11 -55 -67 -84 -107
-54 -40 31 -52 91 -24 129 28 38 60 35 102 -7z"/>
</g>
</svg>
