<?xml version="1.0" standalone="no"?>
<!DOCTYPE svg PUBLIC "-//W3C//DTD SVG 20010904//EN"
 "http://www.w3.org/TR/2001/REC-SVG-20010904/DTD/svg10.dtd">
<svg version="1.0" xmlns="http://www.w3.org/2000/svg"
 width="300.000000pt" height="300.000000pt" viewBox="0 0 300.000000 300.000000"
 preserveAspectRatio="xMidYMid meet">
<metadata>
Created by potrace 1.10, written by Peter Selinger 2001-2011
</metadata>
<g transform="translate(0.000000,300.000000) scale(0.100000,-0.100000)"
fill="#000000" stroke="none">
<path d="M1025 2548 c-51 -7 -119 -29 -131 -41 -4 -4 -24 -7 -45 -7 -49 0
-157 -34 -200 -63 -24 -16 -37 -35 -47 -69 -12 -42 -11 -51 6 -87 l20 -40 -57
-32 c-62 -35 -111 -76 -111 -95 0 -7 12 -35 27 -63 l26 -52 -37 -38 c-28 -29
-36 -44 -32 -59 4 -11 2 -23 -3 -26 -20 -13 -43 -73 -48 -127 -5 -53 -4 -58
20 -74 24 -16 25 -18 11 -51 -24 -57 -36 -175 -25 -244 11 -67 36 -104 76
-114 18 -5 22 -11 18 -28 -3 -13 -10 -28 -15 -34 -14 -19 -27 -204 -17 -256
31 -168 49 -214 104 -272 33 -34 52 -46 74 -46 31 0 61 -22 61 -45 0 -7 21
-35 48 -63 37 -39 56 -51 89 -56 52 -8 149 22 200 61 18 14 44 25 56 26 13 0
52 -21 86 -46 124 -92 217 -90 326 7 46 41 54 43 86 17 35 -27 109 -63 148
-72 78 -18 222 40 307 122 40 39 41 39 70 24 73 -38 109 -30 230 48 77 50 114
87 145 148 19 37 45 134 41 154 -1 6 18 33 43 60 41 45 73 110 91 180 3 14 3
51 -1 83 -6 50 -12 62 -49 97 l-42 41 23 19 c48 42 96 181 97 281 1 53 -3 68
-30 105 -17 24 -34 52 -37 62 -4 9 -18 22 -32 27 -28 11 -29 14 -15 39 19 37
34 149 26 195 -9 46 -60 106 -91 106 -16 0 -32 15 -58 59 -31 49 -46 63 -94
86 -32 15 -81 32 -110 38 -44 9 -57 8 -93 -8 -36 -16 -46 -17 -73 -6 -172 70
-333 79 -398 24 -14 -12 -27 -8 -99 29 -80 42 -85 43 -171 41 -71 -1 -100 -7
-144 -27 l-55 -25 -36 38 c-42 46 -88 60 -159 49z m94 -34 c23 -9 41 -19 41
-23 0 -3 10 -18 23 -33 l22 -28 59 30 c51 26 69 30 142 30 90 0 112 -7 190
-58 l51 -33 44 26 c36 20 57 25 118 25 85 0 182 -21 257 -56 62 -29 66 -29 89
-4 29 32 105 23 202 -22 37 -18 93 -82 93 -107 0 -5 4 -21 10 -35 8 -23 12
-24 41 -14 28 9 34 8 57 -16 24 -24 26 -32 24 -97 -1 -48 -10 -90 -26 -132
-14 -33 -23 -64 -20 -68 3 -5 21 -11 40 -15 26 -5 38 -14 45 -33 6 -14 20 -36
32 -49 18 -19 20 -33 19 -99 -2 -125 -54 -231 -130 -268 -23 -11 -42 -23 -42
-26 0 -4 25 -17 55 -29 81 -33 98 -59 93 -141 -5 -71 -39 -155 -80 -200 -12
-14 -43 -36 -67 -49 -42 -21 -44 -23 -26 -36 10 -8 22 -14 27 -14 34 0 -44
-175 -95 -214 -69 -53 -172 -106 -205 -106 -18 0 -50 9 -72 20 -52 27 -67 25
-84 -8 -34 -66 -116 -114 -220 -130 -87 -14 -117 -4 -247 81 -26 18 -27 18
-65 -23 -102 -109 -196 -108 -363 4 -29 20 -57 36 -62 36 -5 0 -26 -15 -46
-34 -39 -34 -122 -66 -175 -66 -63 0 -134 56 -159 125 -11 29 -18 34 -58 40
-94 14 -160 134 -177 325 -8 77 10 197 37 257 11 23 19 44 19 47 0 4 -15 6
-32 6 -18 0 -38 4 -45 8 -22 14 -43 80 -43 134 0 64 24 172 45 201 22 31 19
43 -15 57 -16 7 -32 20 -35 31 -10 31 14 98 50 138 19 21 32 41 29 44 -10 9
15 45 35 52 32 10 34 39 7 80 -42 61 -43 76 -8 105 17 14 53 37 81 50 28 14
53 31 55 38 3 6 -6 28 -19 48 -28 41 -29 49 -15 91 17 48 124 93 221 93 16 0
40 7 52 15 25 16 109 39 156 43 16 1 48 -5 70 -14z"/>
<path d="M1830 2263 c-8 -1 -85 -7 -170 -12 -85 -5 -254 -17 -375 -26 -175
-14 -235 -15 -294 -6 -46 7 -78 8 -85 2 -6 -5 -17 -29 -23 -53 -22 -79 -22
-134 0 -207 19 -61 26 -72 57 -87 41 -20 167 -30 225 -17 22 5 87 6 145 2 70
-4 137 -1 200 8 52 8 145 20 205 28 211 27 294 52 326 97 45 63 42 223 -5 253
-20 12 -172 26 -206 18z m169 -29 c42 -9 55 -36 54 -115 0 -121 -28 -143 -218
-173 -343 -53 -381 -58 -509 -56 -72 1 -169 -1 -216 -5 -70 -6 -94 -4 -139 12
-52 18 -55 21 -72 73 -21 61 -23 106 -9 165 13 55 33 68 95 59 87 -12 109 -13
160 -3 59 10 358 29 465 29 41 0 100 4 130 9 68 10 216 13 259 5z"/>
<path d="M1026 2084 c-20 -19 -21 -68 -1 -84 32 -27 73 7 61 53 -9 36 -40 52
-60 31z m43 -43 c8 -15 7 -20 -6 -26 -18 -6 -47 21 -37 36 9 15 33 10 43 -10z"/>
<path d="M1879 1686 c-4 -4 -448 -17 -704 -21 -172 -2 -221 -9 -229 -31 -3 -9
-9 -53 -12 -99 -7 -81 -6 -86 20 -120 48 -63 17 -58 501 -81 89 -4 185 -1 305
10 259 25 283 33 321 109 23 43 31 128 17 177 -11 38 -65 60 -147 60 -37 0
-70 -2 -72 -4z m188 -49 c39 -39 14 -190 -37 -217 -56 -30 -508 -63 -667 -48
-43 3 -135 7 -205 7 l-128 1 -39 36 c-22 19 -43 49 -46 65 -8 37 12 124 32
141 12 9 61 13 172 15 86 0 275 5 421 11 382 13 475 11 497 -11z"/>
<path d="M1070 1554 c-28 -8 -40 -40 -29 -74 14 -38 42 -55 69 -40 22 12 26
52 10 94 -9 25 -18 28 -50 20z m44 -46 c9 -35 7 -48 -7 -48 -21 0 -50 37 -44
55 10 23 44 18 51 -7z"/>
<path d="M1295 1209 c-94 -7 -165 -23 -250 -57 -34 -13 -56 -17 -67 -11 -26
15 -48 0 -48 -33 0 -48 31 -156 50 -173 15 -13 52 -17 216 -21 366 -9 398 -9
524 -1 69 4 183 10 255 13 71 3 135 10 142 16 21 17 26 73 12 135 -16 77 -25
93 -52 93 -12 0 -42 7 -66 15 -34 12 -88 15 -255 14 -116 -1 -247 3 -291 7
-44 5 -120 6 -170 3z m170 -30 c50 -6 192 -12 317 -12 166 -2 230 -5 239 -14
7 -7 27 -13 45 -13 29 0 33 -4 43 -44 15 -60 14 -126 -1 -131 -7 -2 -153 -11
-323 -20 -237 -12 -335 -13 -410 -5 -55 6 -156 10 -225 10 -69 -1 -133 -1
-143 -1 -19 1 -40 43 -51 102 l-6 35 77 32 c102 41 152 54 243 62 41 4 82 8
90 8 8 1 56 -3 105 -9z"/>
<path d="M1098 1099 c-20 -11 -25 -64 -7 -74 5 -4 21 -4 35 -1 18 5 24 13 24
34 0 25 -16 52 -29 52 -4 0 -14 -5 -23 -11z m32 -45 c0 -17 -22 -14 -28 4 -2
7 3 12 12 12 9 0 16 -7 16 -16z"/>
</g>
</svg>
