 <svg  version="1.0" xmlns="http://www.w3.org/2000/svg"  width="216.000000pt" height="229.000000pt" viewBox="0 0 216.000000 229.000000"  preserveAspectRatio="xMidYMid meet">  <g transform="translate(0.000000,229.000000) scale(0.100000,-0.100000)" fill="#343225" stroke="none"> <path d="M1224 1969 c-22 -4 -74 -10 -115 -13 -120 -8 -146 -16 -183 -52 -19 -19 -40 -34 -46 -34 -6 0 -15 -11 -20 -25 -5 -14 -18 -28 -27 -32 -10 -3 -34 -19 -54 -35 -20 -15 -42 -28 -47 -28 -19 0 -67 -48 -87 -87 -11 -21 -25 -44 -32 -51 -6 -7 -15 -34 -18 -60 -4 -26 -11 -57 -17 -68 -5 -12 -8 -46 -4 -75 3 -30 10 -120 15 -201 10 -148 23 -203 51 -203 39 -2 58 -24 66 -82 9 -63 9 -71 0 -155 -11 -99 -30 -144 -82 -193 -41 -39 -166 -128 -183 -131 -21 -3 -89 -23 -253 -75 -187 -60 -224 -81 -158 -91 22 -3 30 -1 30 10 0 9 3 12 7 9 3 -4 13 -1 21 6 13 10 14 9 7 -3 -8 -13 -7 -13 8 -1 9 7 17 10 17 5 0 -5 4 -3 9 5 5 7 20 14 35 14 14 0 26 3 26 8 0 5 14 9 30 9 17 0 30 5 30 11 0 7 9 9 21 6 11 -3 22 0 25 7 3 8 22 12 48 12 24 -1 42 2 39 7 -5 8 9 14 48 21 33 5 78 28 104 53 42 40 52 36 48 -19 -2 -28 -6 -54 -9 -59 -3 -5 -1 -9 4 -9 5 0 6 -20 2 -46 -6 -39 -7 -177 -1 -296 1 -17 7 -28 15 -28 12 0 14 27 14 153 -1 214 14 362 43 418 17 32 24 39 27 26 2 -10 -1 -31 -7 -45 -20 -51 -22 -97 -12 -230 11 -132 26 -212 43 -212 4 0 8 -5 8 -11 0 -6 11 -24 25 -41 32 -38 32 -24 1 23 -16 23 -27 57 -31 95 -7 70 -10 98 -26 227 -11 89 -11 101 5 128 9 16 14 33 11 39 -3 5 -1 19 6 31 8 17 8 20 -1 14 -7 -4 -4 4 5 19 10 14 14 26 10 26 -4 0 -3 6 3 13 6 6 10 23 11 37 0 14 1 43 1 65 l1 40 49 -52 c44 -47 70 -64 70 -47 0 3 -12 18 -27 34 -71 74 -74 79 -79 132 -6 75 -14 107 -27 115 -7 5 -18 20 -24 35 -8 17 -20 27 -30 26 -35 -3 -54 2 -48 12 3 6 16 10 28 11 12 0 17 3 11 5 -12 5 -7 51 7 60 5 3 9 13 9 21 0 13 -7 10 -30 -12 -33 -32 -37 -25 -15 28 13 32 13 36 -6 53 -13 12 -16 21 -9 28 14 14 57 -12 64 -40 6 -23 26 -34 26 -15 0 5 4 43 9 83 16 119 20 203 11 217 -13 22 30 91 103 163 54 53 67 72 62 88 -3 11 -3 20 2 20 4 0 13 11 20 25 17 38 -2 30 -34 -15 -15 -22 -35 -42 -43 -45 -9 -3 -24 -18 -33 -35 -15 -25 -16 -29 -2 -24 8 3 15 9 15 13 0 3 17 19 38 36 36 29 37 29 16 3 -32 -41 -80 -78 -90 -70 -5 4 -6 3 -2 -2 4 -5 -4 -24 -19 -42 -14 -19 -22 -34 -19 -34 4 0 1 -6 -6 -14 -23 -25 -28 6 -7 41 18 29 18 33 5 33 -9 0 -21 -12 -27 -26 -5 -15 -23 -44 -39 -64 -17 -21 -30 -46 -29 -56 0 -13 4 -10 11 9 6 17 15 26 24 23 9 -3 11 0 7 11 -4 10 -2 14 4 10 6 -4 13 -2 15 5 3 8 7 6 11 -5 3 -9 3 -17 -2 -17 -5 0 -7 -11 -5 -25 1 -14 -2 -42 -8 -62 -7 -27 -7 -38 1 -41 6 -2 11 -11 11 -20 0 -15 -2 -15 -10 -2 -8 12 -10 12 -10 -5 0 -37 -21 -96 -32 -93 -6 2 -13 14 -15 27 -2 13 -9 31 -16 42 -15 21 -14 87 2 144 6 21 8 42 6 46 -7 11 6 40 15 34 5 -3 16 5 24 17 18 25 21 42 6 33 -5 -3 -10 -1 -10 5 0 6 7 13 15 16 8 4 15 12 15 20 0 8 5 14 11 14 5 0 7 -5 3 -12 -4 -7 -3 -8 5 -4 9 6 9 11 0 22 -8 10 -8 14 0 14 6 0 14 -12 17 -26 6 -24 8 -23 44 34 39 62 64 87 54 55 -4 -13 1 -11 16 7 49 59 97 102 136 125 24 14 45 25 48 25 15 0 3 -24 -24 -51 -31 -31 -70 -83 -70 -93 0 -13 28 -5 45 14 10 11 20 18 23 15 8 -8 63 26 57 36 -8 12 14 34 43 43 12 4 22 12 22 17 0 5 17 9 38 9 l37 -1 -30 -14 c-16 -7 -25 -14 -20 -14 6 -1 3 -6 -5 -11 -13 -8 -12 -10 3 -10 10 0 20 7 23 15 4 8 11 15 16 15 6 0 16 7 22 15 12 16 56 29 56 17 0 -10 -31 -55 -44 -64 -5 -4 -14 -4 -20 -1 -5 3 -6 1 -2 -5 11 -18 15 -16 62 36 l44 47 0 -43 c0 -29 4 -41 11 -36 6 3 9 15 6 25 -3 10 -1 21 3 24 15 9 30 -31 30 -79 0 -25 4 -47 9 -50 7 -5 6 45 -3 112 -2 12 0 22 5 22 13 0 33 -80 38 -149 1 -9 11 -12 34 -8 17 2 47 -1 65 -9 17 -7 32 -11 32 -8 0 3 7 -2 16 -11 9 -9 27 -23 40 -32 13 -8 21 -19 18 -24 -3 -5 3 -6 13 -2 16 6 16 5 4 -10 -11 -14 -11 -18 3 -23 9 -3 16 -11 16 -16 0 -6 -7 -8 -15 -4 -21 8 -19 2 12 -44 19 -31 28 -60 34 -118 4 -42 11 -88 15 -102 7 -23 6 -24 -11 -10 -17 14 -18 13 -12 -9 3 -14 1 -31 -6 -40 -10 -12 -9 -14 5 -9 17 7 29 -10 27 -40 0 -14 -2 -13 -9 3 -8 18 -9 18 -10 -5 l-2 -25 -8 25 c-7 21 -8 22 -9 4 -1 -28 -23 -73 -39 -79 -7 -2 -11 -1 -8 4 3 5 -3 11 -14 14 -12 3 -24 -1 -31 -11 -8 -13 -9 -9 -5 17 3 18 7 41 7 50 1 9 5 3 10 -14 5 -20 6 -8 2 34 -3 37 -1 61 4 58 5 -3 10 4 10 16 2 22 1 22 -18 -2 -12 -15 -18 -33 -15 -45 3 -11 0 -26 -5 -33 -6 -6 -12 -29 -13 -50 -1 -21 -5 -45 -8 -53 -31 -90 -29 -99 13 -48 20 23 31 29 45 24 17 -7 17 -10 -11 -34 -21 -19 -29 -35 -27 -52 3 -25 2 -25 -14 -5 -15 19 -16 18 -12 -20 3 -29 0 -43 -11 -52 -14 -11 -14 -12 2 -13 19 0 21 -8 8 -28 -14 -23 -44 34 -36 70 5 21 4 28 -4 24 -6 -4 -11 -20 -11 -36 0 -16 -5 -41 -12 -57 -6 -15 -11 -31 -10 -35 1 -5 -5 -8 -13 -8 -8 0 -15 -5 -15 -12 0 -20 -42 -99 -56 -105 -7 -2 -11 -10 -8 -17 11 -29 -110 -116 -161 -116 -14 0 -25 -7 -28 -20 -3 -11 -11 -19 -19 -17 -7 2 -10 2 -5 0 4 -3 7 -12 7 -21 1 -15 2 -15 14 0 7 10 17 18 21 18 17 0 112 54 137 77 32 31 36 29 40 -15 1 -18 6 -32 10 -32 4 0 8 -11 8 -24 0 -13 6 -29 14 -35 18 -15 36 -95 36 -158 0 -51 -19 -123 -32 -123 -4 0 -8 -7 -8 -15 0 -22 21 -18 27 4 3 13 10 18 21 13 14 -5 15 -3 4 10 -8 10 -10 26 -6 43 8 31 11 55 13 99 1 21 5 27 16 22 13 -4 12 -1 -2 22 -15 24 -12 23 23 -9 21 -20 54 -45 72 -55 17 -10 32 -22 32 -27 0 -5 7 -6 16 -3 10 4 21 -4 32 -25 9 -17 25 -40 36 -52 l18 -22 -6 22 c-5 16 -2 22 11 25 17 4 51 -9 63 -23 3 -3 16 -12 30 -19 24 -13 24 -12 10 5 -17 21 -17 21 51 -21 20 -13 40 -20 43 -17 3 4 13 -2 22 -13 8 -10 12 -13 8 -5 -8 17 33 5 54 -15 7 -8 24 -14 37 -14 12 0 25 -7 29 -15 3 -8 14 -15 25 -15 11 0 23 -5 26 -11 4 -6 13 -8 21 -5 7 3 16 1 19 -4 10 -15 25 -12 25 6 0 9 -23 25 -57 40 -32 14 -80 36 -108 49 -27 12 -61 26 -75 30 -14 4 -56 22 -95 40 -38 17 -88 38 -110 45 -110 35 -188 91 -284 204 -46 54 -51 64 -51 109 0 38 7 59 30 93 16 25 33 56 36 69 7 28 14 34 45 40 34 7 47 23 59 78 15 68 42 127 69 151 12 11 21 24 21 30 0 6 18 18 40 28 l39 16 -4 109 c-2 59 -8 159 -13 221 -9 98 -13 116 -37 147 -14 20 -38 43 -53 52 -29 18 -58 48 -72 73 -4 8 -21 15 -37 16 -41 2 -43 3 -43 16 0 9 3 9 12 0 14 -14 28 -16 28 -3 0 9 -101 91 -150 122 -32 21 -75 26 -126 18z m217 -136 c10 -11 10 -14 2 -9 -7 4 -13 4 -13 -1 0 -4 17 -16 38 -25 36 -16 36 -17 7 -13 -16 2 -36 4 -42 4 -8 1 -13 14 -13 31 0 35 3 36 21 13z"/> <path d="M1236 1836 c-21 -15 -30 -17 -33 -8 -6 17 -20 15 -20 -3 0 -8 4 -12 8 -9 4 2 10 0 14 -5 6 -11 44 -6 58 8 5 5 7 16 5 24 -2 12 -8 11 -32 -7z"/> <path d="M1250 1797 c3 -2 22 -14 43 -26 l37 -23 0 24 c0 21 -5 24 -42 27 -23 1 -40 0 -38 -2z"/> <path d="M1415 1699 c8 -23 15 -50 15 -60 0 -10 4 -20 9 -24 6 -3 8 10 6 32 -5 37 -4 37 7 11 7 -16 15 -28 20 -28 11 0 10 28 -2 35 -5 3 -10 13 -10 21 0 16 -35 54 -50 54 -5 0 -3 -19 5 -41z"/> <path d="M1528 1703 c12 -17 22 -37 22 -44 0 -7 3 -9 7 -6 3 4 13 1 22 -6 23 -18 -23 45 -50 68 l-23 20 22 -32z"/> <path d="M1347 1659 c2 -29 8 -60 14 -69 6 -9 7 6 3 45 -4 33 -10 64 -14 69 -5 4 -6 -16 -3 -45z"/> <path d="M1550 1546 c0 -25 -4 -47 -9 -50 -4 -3 -11 -29 -15 -58 -3 -29 -9 -65 -12 -80 -4 -19 -2 -28 7 -28 7 0 9 3 6 7 -4 3 -2 12 3 18 6 7 13 36 16 65 5 57 11 73 23 66 4 -3 6 7 5 22 -1 15 -2 39 -3 55 -2 45 -21 30 -21 -17z"/> <path d="M1460 1538 c-5 -13 -20 -35 -33 -51 l-23 -27 -39 20 c-22 11 -51 20 -65 20 -29 0 -58 -16 -47 -26 4 -4 -1 -13 -11 -21 -15 -13 -12 -14 25 -9 23 3 44 2 47 -3 3 -4 25 -11 49 -14 23 -3 51 -9 60 -13 12 -4 17 -1 17 11 0 10 14 33 30 52 30 34 40 61 18 47 -8 -5 -9 0 -6 14 8 29 -10 28 -22 0z"/> <path d="M1606 1513 c4 -27 7 -55 7 -63 0 -19 19 -38 33 -33 22 7 -18 143 -43 143 -2 0 -1 -21 3 -47z"/> <path d="M905 1520 c-70 -35 -112 -66 -103 -75 3 -4 21 4 38 17 30 21 41 23 153 22 67 -1 116 1 110 3 -7 3 -13 11 -13 19 0 8 -6 11 -16 7 -9 -3 -21 3 -30 16 -21 30 -67 27 -139 -9z"/> <path d="M1481 1426 c-1 -23 -4 -26 -15 -17 -11 9 -16 9 -21 0 -4 -6 -3 -14 3 -18 6 -3 17 -19 25 -34 l15 -28 4 39 c2 22 0 50 -3 63 -7 23 -7 22 -8 -5z"/> <path d="M1030 1426 c0 -16 26 -46 41 -46 5 0 9 -7 9 -17 0 -9 2 -14 5 -11 12 11 -8 58 -24 58 -12 0 -13 2 -3 9 11 7 10 10 -3 15 -23 8 -25 8 -25 -8z"/> <path d="M1248 1394 c-29 -15 -37 -34 -15 -34 6 0 30 12 52 25 36 22 37 25 15 25 -14 -1 -37 -8 -52 -16z"/> <path d="M883 1378 c-29 -11 -53 -24 -53 -29 0 -10 60 0 78 14 8 6 12 6 12 -2 0 -18 48 -13 59 7 10 16 12 16 25 0 14 -19 46 -25 46 -8 0 33 -101 44 -167 18z"/> <path d="M1252 1342 c-25 -17 -8 -47 38 -69 59 -28 90 -37 90 -25 0 5 -21 15 -46 22 -25 7 -48 19 -51 26 -3 8 -9 11 -14 8 -5 -3 -9 -1 -9 4 0 18 33 23 42 7 5 -8 22 -15 38 -15 17 0 30 -4 30 -9 0 -8 60 -41 74 -41 3 0 1 9 -6 20 -29 47 -153 94 -186 72z"/> <path d="M870 1326 c12 -15 25 -17 77 -14 35 2 69 10 75 17 11 10 8 11 -12 7 -51 -12 -129 -13 -141 -2 -7 6 -7 3 1 -8z"/> <path d="M700 1139 c0 -29 3 -49 6 -46 10 10 11 88 2 93 -4 3 -8 -18 -8 -47z"/> <path d="M1036 1146 c-38 -17 -18 -30 34 -21 43 7 57 -8 19 -20 -13 -4 -17 -10 -11 -14 16 -10 92 -1 92 11 0 5 13 7 30 3 24 -5 30 -3 30 10 0 20 -26 30 -44 16 -16 -14 -71 -4 -87 15 -14 17 -25 17 -63 0z"/> <path d="M1284 1132 c1 -15 9 -39 16 -52 7 -14 21 -50 31 -80 15 -48 17 -51 19 -25 3 47 -1 67 -16 83 -8 8 -13 19 -11 26 2 6 -2 17 -10 24 -7 7 -13 22 -13 33 0 10 -4 19 -10 19 -5 0 -8 -12 -6 -28z"/> <path d="M917 1125 c-46 -24 -78 -66 -76 -102 0 -13 3 -12 10 7 13 31 69 90 86 90 7 0 13 5 13 10 0 13 0 13 -33 -5z"/> <path d="M974 1012 c-44 -7 -84 -24 -84 -36 0 -17 61 -47 110 -52 24 -3 48 -8 53 -11 5 -3 8 0 5 8 -3 9 -25 16 -57 19 -50 5 -51 6 -37 26 13 17 24 21 68 19 29 -1 53 -3 53 -4 0 -1 27 -4 60 -7 65 -5 69 -8 80 -43 7 -22 5 -24 -24 -18 -18 4 -31 2 -31 -3 0 -10 35 -15 55 -9 6 1 24 3 40 4 17 1 30 6 30 12 0 17 -59 61 -91 68 -16 4 -42 11 -57 17 -27 10 -134 16 -173 10z"/> <path d="M1032 665 c2 -15 13 -20 48 -23 25 -2 51 -9 59 -15 10 -9 13 -7 10 8 -3 15 -14 19 -53 21 -27 2 -53 9 -58 16 -7 9 -8 7 -6 -7z"/> <path d="M1378 520 c18 -113 2 -186 -63 -284 -52 -79 -60 -102 -44 -118 21 -19 39 -20 39 -2 0 8 -5 12 -10 9 -6 -3 -13 2 -17 11 -4 10 -2 19 5 22 7 2 12 10 12 18 0 9 5 12 10 9 6 -3 10 4 10 15 0 15 5 20 14 17 10 -4 13 -1 9 9 -3 7 0 14 7 14 6 0 9 4 5 9 -3 6 9 24 26 42 32 32 32 32 26 118 -3 47 -12 102 -21 121 l-16 35 8 -45z"/> <path d="M982 428 c2 -6 14 -18 26 -26 20 -13 22 -13 22 2 0 10 -4 14 -10 11 -5 -3 -10 -2 -10 3 0 6 -7 13 -16 16 -9 4 -14 1 -12 -6z"/> <path d="M1621 217 c-51 -25 -73 -56 -24 -35 15 7 33 16 38 21 6 4 19 14 30 22 30 21 6 17 -44 -8z"/> <path d="M1380 201 c0 -28 -11 -52 -20 -46 -5 3 -11 1 -15 -5 -3 -5 0 -10 8 -10 12 0 13 -9 6 -42 -4 -24 -12 -55 -18 -70 -9 -25 -8 -28 9 -28 18 0 27 26 21 63 0 4 2 7 7 7 4 0 6 17 4 38 -2 22 1 55 6 75 6 22 7 37 1 37 -5 0 -9 -9 -9 -19z"/> <path d="M1304 81 c-22 -6 -80 -68 -72 -77 3 -2 21 11 39 29 19 19 41 36 49 39 22 8 8 16 -16 9z"/> </g> </svg> 