<?xml version="1.0" standalone="no"?>
<!DOCTYPE svg PUBLIC "-//W3C//DTD SVG 20010904//EN"
 "http://www.w3.org/TR/2001/REC-SVG-20010904/DTD/svg10.dtd">
<svg version="1.0" xmlns="http://www.w3.org/2000/svg"
 width="300.000000pt" height="300.000000pt" viewBox="0 0 300.000000 300.000000"
 preserveAspectRatio="xMidYMid meet">
<metadata>
Created by potrace 1.10, written by Peter Selinger 2001-2011
</metadata>
<g transform="translate(0.000000,300.000000) scale(0.100000,-0.100000)"
fill="#000000" stroke="none">
<path d="M1255 2530 c-67 -8 -101 -26 -84 -46 7 -8 26 -13 45 -12 18 1 35 0
38 -2 6 -7 8 -45 7 -102 -1 -42 -4 -47 -32 -57 -29 -10 -31 -14 -25 -42 3 -17
6 -51 6 -74 0 -40 2 -44 30 -50 34 -8 33 -5 20 -40 -6 -15 -19 -59 -29 -98
-11 -40 -34 -121 -51 -182 -18 -60 -34 -119 -35 -130 -2 -11 -8 -38 -14 -60
-14 -50 -14 -105 -1 -105 6 0 10 -11 10 -25 0 -22 -4 -25 -39 -25 l-38 0 5 73
c2 39 8 80 13 89 14 26 11 38 -11 38 -11 0 -29 9 -40 20 -11 11 -25 20 -32 20
-14 0 -138 81 -138 90 0 4 -49 40 -110 80 -60 39 -110 79 -110 87 0 10 -6 13
-17 9 -20 -8 -180 98 -189 126 -6 21 -29 24 -40 6 -4 -7 -9 -28 -11 -48 -2
-19 -8 -36 -13 -38 -11 -4 23 -67 54 -102 13 -14 26 -33 29 -42 4 -10 15 -18
25 -18 10 0 32 -16 48 -36 16 -20 53 -60 81 -88 36 -36 49 -56 43 -62 -16 -16
0 -44 25 -44 16 0 40 -21 81 -70 63 -75 72 -90 56 -90 -7 0 -8 -38 -4 -107 4
-60 6 -136 5 -170 l-2 -63 121 1 c66 1 124 -3 128 -8 13 -14 -1 -194 -15 -191
-6 2 -24 -11 -39 -29 -29 -35 -85 -58 -119 -49 -12 3 -37 19 -55 36 -64 58
-87 25 -26 -37 57 -57 141 -59 205 -6 l32 27 63 -22 c85 -30 111 -28 174 13
30 19 56 31 59 27 4 -4 19 -8 34 -9 16 0 37 -9 49 -19 34 -31 123 -26 176 10
42 29 43 29 61 10 38 -40 83 -75 106 -84 49 -19 133 11 176 63 l27 31 58 -27
c46 -20 69 -25 102 -20 23 3 42 10 42 15 0 8 56 86 71 98 4 3 3 14 -1 25 -6
18 -8 18 -33 -8 -14 -16 -28 -24 -31 -18 -4 5 -7 37 -8 70 -2 64 -18 95 -40
73 -7 -7 -8 -31 -1 -76 5 -37 8 -80 5 -96 -4 -25 -9 -30 -33 -30 -16 0 -46 9
-66 20 -46 24 -71 25 -95 3 -17 -15 -18 -13 -20 68 -1 92 1 131 8 139 3 2 56
3 117 2 120 -3 231 12 259 36 23 19 12 35 -19 29 -23 -4 -24 -2 -21 36 l3 41
55 11 55 10 1 60 c1 57 9 82 45 133 15 20 27 24 100 28 142 8 166 13 172 35 5
17 -23 124 -34 133 -10 8 -512 -15 -529 -24 -10 -5 -46 -10 -79 -10 l-61 0 4
-85 c3 -67 1 -85 -10 -85 -8 0 -16 12 -20 28 -20 90 -25 102 -52 114 -22 11
-30 25 -44 78 -9 36 -26 101 -38 144 -11 43 -19 85 -16 92 3 7 1 16 -4 19 -5
3 -11 27 -15 53 -3 26 -8 64 -10 85 -4 29 -2 37 10 37 13 0 16 13 14 78 -2
105 -10 122 -54 122 l-35 0 -2 50 c-1 28 -2 58 -2 68 -1 12 9 18 34 22 26 4
36 10 38 26 4 29 -11 33 -93 22 -38 -5 -104 -6 -145 -2 -100 9 -234 11 -295 4z
m200 -48 c6 -4 12 -39 14 -78 l3 -71 -32 -7 c-18 -3 -57 -6 -86 -6 l-54 0 0
79 c0 79 0 80 28 84 48 7 117 7 127 -1z m218 -39 c16 -91 6 -103 -89 -103
l-74 0 0 65 0 65 79 0 c79 0 79 0 84 -27z m94 -195 l-2 -52 -242 -2 c-133 -1
-247 -5 -252 -9 -12 -7 -16 2 -25 54 l-6 34 39 -6 c22 -2 43 -1 48 4 5 5 51
11 101 13 51 2 95 6 99 9 3 4 59 7 124 7 l119 0 -3 -52z m-337 -123 c-28 -30
-33 -30 -68 -7 l-26 17 49 6 c28 3 54 7 59 7 5 1 -1 -9 -14 -23z m260 16 c0
-5 -16 -21 -35 -36 l-36 -26 -44 28 c-25 15 -45 31 -45 36 0 4 36 7 80 7 44 0
80 -4 80 -9z m-186 -62 c3 -17 6 -38 6 -45 0 -21 -45 -17 -66 7 -19 21 -18 21
9 45 37 31 43 30 51 -7z m245 -26 c1 -26 -13 -29 -56 -12 l-28 11 35 29 c31
26 35 28 42 12 3 -10 7 -28 7 -40z m-399 -14 c-13 -24 -60 -60 -71 -54 -7 5 0
31 26 104 4 11 11 9 30 -9 19 -17 22 -27 15 -41z m220 -14 c-16 -19 -30 -4
-30 35 l0 24 22 -21 c18 -19 19 -24 8 -38z m-1065 -17 c35 -24 65 -45 65 -48
0 -3 -20 -13 -45 -24 -50 -20 -59 -17 -96 36 -21 29 -20 78 1 78 6 0 39 -19
75 -42z m902 -36 c-27 -2 -52 -1 -55 2 -3 4 5 17 18 31 l23 24 31 -27 31 -27
-48 -3z m284 24 l54 -25 -84 0 -84 -1 23 25 c13 14 27 25 30 25 4 0 32 -11 61
-24z m-184 -22 c-3 -3 -12 -4 -19 -1 -8 3 -5 6 6 6 11 1 17 -2 13 -5z m-47
-60 c0 -16 -44 -75 -62 -85 -18 -10 -26 -6 -60 30 -22 22 -44 41 -49 41 -6 0
-7 5 -4 10 7 11 175 14 175 4z m273 0 c7 -7 -34 -74 -45 -74 -9 0 -108 70
-108 76 0 7 146 5 153 -2z m-1039 -29 c20 -13 50 -34 66 -47 l30 -22 -67 -22
c-38 -12 -69 -21 -71 -19 -6 6 -18 111 -14 123 5 17 15 15 56 -13z m-90 -7 c8
-32 7 -78 -1 -77 -16 2 -74 79 -68 89 3 5 19 10 34 10 21 0 30 -6 35 -22z
m930 -115 c5 -80 4 -103 -6 -103 -13 0 -118 99 -118 111 0 7 22 32 83 96 29
31 33 20 41 -104z m282 8 c13 -41 22 -77 18 -80 -3 -3 -21 10 -39 30 -18 20
-42 43 -54 51 -21 15 -21 15 11 64 26 40 33 45 36 29 2 -11 15 -53 28 -94z
m-505 59 l41 -39 -43 -52 c-50 -59 -72 -73 -99 -64 -23 7 -24 11 -11 51 5 16
17 55 26 87 10 36 21 57 30 57 8 0 33 -18 56 -40z m331 -17 c16 -18 15 -63 -1
-63 -4 0 -8 -6 -8 -12 -2 -23 -41 -89 -48 -79 -7 13 -22 170 -17 194 3 16 5
16 30 -2 15 -10 35 -27 44 -38z m-820 -58 c3 -3 3 -16 1 -30 -5 -21 -12 -25
-61 -31 -54 -7 -83 1 -84 21 0 21 127 57 144 40z m83 -30 l30 -24 -37 -1 c-34
0 -38 3 -38 25 0 31 7 31 45 0z m864 -37 c19 -21 32 -41 29 -43 -6 -6 -157
-22 -162 -17 -4 3 16 43 51 99 16 27 30 21 82 -39z m-334 -4 c31 -31 54 -59
50 -62 -4 -4 -63 -9 -133 -10 l-126 -4 67 66 c37 36 71 66 76 66 4 0 34 -25
66 -56z m-617 -83 l3 -44 -40 32 c-53 42 -54 64 -3 59 36 -4 37 -5 40 -47z
m85 15 c-35 -43 -43 -44 -43 -7 0 25 5 30 28 34 15 2 31 5 35 6 5 0 -4 -14
-20 -33z m1741 -4 c5 -18 6 -35 2 -39 -4 -4 -62 -8 -130 -9 -68 -1 -136 -4
-152 -8 -16 -3 -87 -8 -159 -12 -71 -3 -133 -8 -137 -10 -16 -10 -34 10 -36
41 -2 32 -1 34 35 40 21 3 62 10 91 16 29 6 65 8 80 5 15 -2 59 -2 97 2 39 4
122 7 185 7 l114 -1 10 -32z m-1617 -48 c-3 -41 -8 -78 -11 -81 -12 -13 -113
-15 -121 -4 -18 30 77 161 117 161 19 0 20 -4 15 -76z m173 55 c0 -5 -4 -9
-10 -9 -5 0 -10 7 -10 16 0 8 5 12 10 9 6 -3 10 -10 10 -16z m705 -41 c14 -13
24 -83 14 -93 -11 -11 -415 -14 -609 -3 l-125 6 -3 35 c-3 34 -2 34 44 41 26
3 119 7 208 7 89 1 190 5 226 8 77 9 236 8 245 -1z m458 -71 c-6 -26 -14 -30
-73 -31 -53 -1 -65 2 -68 16 -2 13 5 17 35 20 61 5 108 3 106 -5z m-166 -66
c15 -24 37 -193 28 -220 -8 -28 -36 -31 -245 -30 -102 1 -342 -2 -535 -4 -192
-3 -406 -3 -475 1 l-125 7 -9 83 c-4 45 -5 97 -2 115 6 32 7 32 59 31 28 0
115 5 192 11 103 8 186 8 315 0 180 -11 538 -3 641 14 96 16 143 13 156 -8z
m138 -53 c8 -33 -11 -58 -44 -58 -25 0 -51 32 -51 62 0 27 2 28 44 28 42 0 45
-2 51 -32z m-494 -247 l36 -1 -1 -132 -1 -133 -33 -11 c-18 -6 -46 -8 -62 -6
-29 4 -83 48 -112 91 l-16 23 -61 -37 c-52 -32 -67 -37 -102 -32 -22 3 -58 18
-80 33 l-39 27 0 78 c0 75 -10 103 -27 77 -4 -7 -8 -44 -8 -83 l0 -70 -55 -37
c-61 -42 -96 -46 -150 -20 l-35 17 -1 90 c-1 129 -2 125 65 119 31 -2 103 -1
161 3 86 7 347 8 521 4z"/>
</g>
</svg>
