<?xml version="1.0" standalone="no"?>
<!DOCTYPE svg PUBLIC "-//W3C//DTD SVG 20010904//EN"
 "http://www.w3.org/TR/2001/REC-SVG-20010904/DTD/svg10.dtd">
<svg version="1.0" xmlns="http://www.w3.org/2000/svg"
 width="300.000000pt" height="300.000000pt" viewBox="0 0 300.000000 300.000000"
 preserveAspectRatio="xMidYMid meet">
<metadata>
Created by potrace 1.10, written by Peter Selinger 2001-2011
</metadata>
<g transform="translate(0.000000,300.000000) scale(0.100000,-0.100000)"
fill="#000000" stroke="none">
<path d="M241 1729 c-52 -23 -54 -20 64 -104 101 -72 189 -144 205 -169 11
-18 5 -27 -61 -91 -79 -76 -139 -147 -139 -164 0 -16 55 -13 96 4 47 20 244
217 244 245 0 11 -102 114 -195 197 -131 116 -135 117 -214 82z m108 -24 c87
-63 271 -238 271 -256 0 -13 -108 -127 -170 -179 -48 -40 -90 -59 -90 -41 0
14 158 175 185 189 17 9 18 13 6 36 -16 30 -147 143 -219 190 -86 55 -88 58
-55 72 38 17 35 17 72 -11z"/>
<path d="M2113 1740 c-12 -5 -27 -18 -33 -29 -7 -15 -21 -21 -43 -21 -38 0
-91 -30 -107 -61 -7 -12 -9 -35 -6 -52 5 -26 1 -35 -30 -64 -33 -30 -36 -36
-30 -72 4 -27 2 -42 -8 -51 -35 -28 -23 -118 18 -133 13 -5 127 1 401 23 86 7
187 19 300 36 17 2 46 18 65 34 34 28 35 31 35 97 0 87 -20 123 -69 123 -29 0
-35 5 -51 41 -24 52 -70 91 -104 87 -15 -1 -43 8 -62 20 -39 24 -82 28 -123
12 -18 -7 -35 -5 -60 5 -40 17 -61 18 -93 5z m105 -47 l20 -28 20 25 c29 36
91 34 130 -3 18 -18 35 -25 45 -21 48 18 107 -38 107 -102 0 -40 7 -46 36 -28
45 30 84 -8 84 -84 0 -41 -19 -76 -51 -93 -11 -6 -62 -15 -112 -20 -51 -5
-105 -13 -122 -19 -16 -5 -73 -12 -125 -15 -271 -18 -316 -22 -332 -29 -22
-10 -58 26 -58 60 0 15 12 38 30 56 35 35 37 44 10 51 -11 3 -20 10 -20 16 0
15 52 61 78 67 27 8 28 25 2 42 -49 30 -2 91 75 96 34 2 50 7 58 22 15 28 27
34 69 34 28 0 41 -6 56 -27z"/>
<path d="M1552 1624 c2 -12 24 -25 63 -39 33 -11 69 -25 80 -32 19 -11 19 -12
1 -32 -10 -11 -34 -26 -52 -33 -19 -7 -34 -18 -34 -25 0 -37 92 13 111 61 11
25 10 30 -12 47 -13 10 -42 24 -64 30 -22 6 -53 18 -68 26 -27 13 -28 13 -25
-3z"/>
<path d="M1585 1549 c-33 -4 -113 -7 -177 -8 -93 -1 -118 -4 -118 -15 0 -20
42 -23 202 -14 97 6 147 13 156 22 20 19 5 23 -63 15z"/>
<path d="M890 1262 c-166 -19 -160 -17 -160 -56 0 -33 1 -34 48 -40 39 -4 207
-3 381 3 l34 1 -6 46 c-2 26 -10 50 -17 54 -18 11 -146 8 -280 -8z m270 -37
c0 -23 -4 -25 -42 -25 -24 -1 -113 -2 -200 -3 -142 -2 -182 3 -166 19 10 9
226 32 321 33 86 1 87 1 87 -24z"/>
</g>
</svg>
